<?xml version="1.0" standalone="no"?>
<!DOCTYPE svg PUBLIC "-//W3C//DTD SVG 20010904//EN"
        "http://www.w3.org/TR/2001/REC-SVG-20010904/DTD/svg10.dtd">
<svg version="1.0" xmlns="http://www.w3.org/2000/svg"
     width="128.000000pt" height="128.000000pt" viewBox="0 0 128.000000 128.000000"
     preserveAspectRatio="xMidYMid meet">

    <g transform="translate(0.000000,128.000000) scale(0.100000,-0.100000)"
       fill="#000000" stroke="none">
        <path d="M228 1094 c-57 -30 -58 -38 -58 -454 0 -418 1 -424 60 -455 43 -22
777 -22 820 0 59 31 60 37 60 455 0 418 -1 424 -60 455 -43 22 -781 22 -822
-1z m514 -140 c4 -3 -11 -58 -33 -122 -21 -64 -39 -117 -39 -119 0 -2 36 -3
81 -3 65 0 80 -3 77 -14 -3 -16 -241 -312 -267 -333 -41 -35 -41 -5 4 127 19
57 35 108 35 112 0 4 -36 8 -81 8 -70 0 -80 2 -75 16 10 26 270 334 282 334 6
0 13 -3 16 -6z m-282 -59 c0 -19 -5 -25 -23 -25 -38 0 -47 -19 -47 -96 0 -57
-4 -77 -21 -98 -21 -26 -21 -28 -3 -47 13 -14 19 -40 22 -87 5 -104 8 -112 43
-112 27 0 30 -3 27 -27 -4 -33 -27 -40 -69 -22 -42 17 -59 56 -59 138 0 67
-14 101 -41 101 -5 0 -9 12 -9 28 0 19 7 30 23 37 19 9 22 18 25 80 1 39 4 80
7 93 9 39 41 62 85 62 36 0 40 -2 40 -25z m449 15 c28 -14 34 -36 40 -130 5
-76 8 -86 29 -95 28 -12 31 -62 5 -72 -28 -10 -33 -24 -33 -96 0 -82 -18 -121
-61 -136 -54 -19 -69 -15 -69 19 0 27 3 30 30 30 34 0 37 8 42 112 3 47 9 73
22 87 18 19 18 21 -3 47 -17 21 -21 41 -21 98 0 77 -9 96 -47 96 -18 0 -23 6
-23 25 0 22 4 25 36 25 19 0 43 -4 53 -10z"/>
    </g>
</svg>
